Coordinates
version=1
nRows=10
nColumns=33
inDegrees=yes

Units are S.I. units (second, meters, Newtons, ...)
Angles are in degrees.

endheader
time	ground_thorax_rot_x	ground_thorax_rot_y	ground_thorax_rot_z	ground_thorax_tx	ground_thorax_ty	ground_thorax_tz	clav_prot_r	clav_elev_r	scapula_abduction_r	scapula_elevation_r	scapula_upward_rot_r	scapula_winging_r	shoulder_elv_r	plane_of_elev_r	axial_rot_r	elbow_flexion_r	pro_sup_r	wrist_flex_r	wrist_dev_r	clav_prot_l	clav_elev_l	scapula_abduction_l	scapula_elevation_l	scapula_upward_rot_l	scapula_winging_l	shoulder_elv_l	plane_of_elev_l	axial_rot_l	elbow_flexion_l	pro_sup_l	wrist_flex_l	wrist_dev_l
      8.17000000	    -38.33103272	     -7.98525492	     14.62132421	   -258.45649377	    852.39193356	      5.46306071	      6.24775689	    -45.00000000	     36.53234614	    -45.00000000	    -39.12592753	   3136.05061075	  -1727.13604574	     33.81512277	     62.36224197	   1099.40090462	     94.69416524	     13.24733646	      1.76809761	     14.14614373	     37.16501282	    -35.76666666	    -45.00000000	    -45.00000000	  -1353.34703613	   2593.71733004	     22.41608924	    -45.21105475	   2181.11564959	    116.52522344	     -1.16411762	    -11.75358556
      8.18000000	    -38.28490460	     -8.09198343	     14.76729217	   -258.63254026	    852.20030515	      5.48904737	      6.36198717	    -45.00000000	     36.48069849	    -45.00000000	    -39.42326495	   3136.09339975	  -1727.04853444	     33.79467878	     62.40975680	   1099.47410334	     94.98019017	     13.13795182	      1.74509387	     14.08345241	     37.11672625	    -35.62123594	    -45.00000000	    -45.00000000	  -1353.40576933	   2593.69229609	     22.38753936	    -45.43340539	   2181.01630238	    116.88449467	     -1.36519421	    -11.34387555
      8.19000000	    -38.27212624	     -8.11201020	     14.93067893	   -258.72933544	    852.01625434	      5.52072274	      6.37711625	    -45.00000000	     36.33083819	    -45.00000000	    -39.41188770	   3135.96177486	  -1727.12752214	     33.84798409	     62.32701055	   1099.32832435	     95.21648486	     13.18042919	      1.87340351	     14.07561037	     37.14756617	    -35.69345088	    -45.00000000	    -45.00000000	  -1353.40853381	   2593.61128138	     22.34830118	    -45.52994370	   2180.96874956	    117.15966572	     -1.11847730	    -11.59856183
      8.20000000	    -38.33497437	     -8.19143680	     14.82315906	   -259.00412323	    851.86292792	      5.68437437	      6.31111251	    -45.00000000	     36.37321984	    -45.00000000	    -39.54224337	   3136.06188136	  -1727.04467570	     33.76008784	     62.21096036	   1099.41785804	     94.73156301	     13.55876719	      2.09325331	     14.09129340	     37.14691033	    -35.55576742	    -45.00000000	    -45.00000000	  -1353.35813388	   2593.64194887	     22.42117189	    -45.48434316	   2181.06383378	    117.42974516	     -1.23643606	    -11.31892995
      8.21000000	    -38.38736508	     -8.15602879	     14.76496093	   -259.13896338	    851.74910804	      5.84167769	      6.39575215	    -45.00000000	     36.42625477	    -45.00000000	    -39.59713858	   3135.97363461	  -1727.13864843	     33.85231514	     61.95557864	   1099.15063605	     93.80057257	     13.57194739	      2.20700947	     14.04813179	     37.12172112	    -35.79320448	    -45.00000000	    -45.00000000	  -1353.47273678	   2593.57168709	     22.23683000	    -45.54031106	   2180.95809271	    117.65113218	     -1.10801424	    -11.54183534
      8.22000000	    -38.38560610	     -8.35023078	     14.83701632	   -259.06566950	    851.65960174	      5.95799718	      6.38982091	    -45.00000000	     36.46958251	    -45.00000000	    -39.72941968	   3136.09764256	  -1726.90882126	     33.75414839	     61.84243775	   1099.21392302	     92.49416103	     13.71781093	      2.19087387	     14.20418879	     37.16476582	    -35.47957369	    -45.00000000	    -45.00000000	  -1353.37347956	   2593.55813069	     22.47449643	    -45.46813217	   2181.04075507	    117.87907074	     -1.13504312	    -11.29951612
      8.23000000	    -38.46493165	     -8.16272742	     14.76581268	   -258.79572389	    851.56759478	      6.03982343	      6.50019553	    -45.00000000	     36.45064034	    -45.00000000	    -39.63882700	   3135.94270447	  -1727.03130785	     33.95939433	     61.61522884	   1099.09094595	     91.23604750	     13.48679513	      2.14271889	     14.07510256	     37.10295161	    -35.85863645	    -45.00000000	    -45.00000000	  -1353.47117545	   2593.55116543	     22.21608525	    -45.54781795	   2181.17511467	    118.08088025	     -1.13060943	    -11.45473566
      8.24000000	    -38.46807371	     -8.43827179	     14.94491630	   -258.36211782	    851.46381959	      6.09423667	      6.43331447	    -45.00000000	     36.54523388	    -45.00000000	    -39.67458333	   3136.15482380	  -1726.81186807	     33.83525485	     61.66380705	   1099.15205074	     90.23942668	     13.48041546	      2.01322864	     14.30042916	     37.17485553	    -35.49684042	    -45.00000000	    -45.00000000	  -1353.35590348	   2593.52704281	     22.50477610	    -45.38452214	   2181.08106868	    118.32969407	     -1.05532309	    -11.27302450
      8.25000000	    -38.55292316	     -8.16572665	     14.85579648	   -257.78337440	    851.32611440	      6.12964392	      6.53041088	    -45.00000000	     36.47758173	    -45.00000000	    -39.43992841	   3136.02736165	  -1726.99159823	     34.06354617	     61.56311741	   1099.09914037	     89.65102659	     13.13994196	      1.89325380	     14.13792981	     37.10531483	    -35.90365559	    -45.00000000	    -45.00000000	  -1353.50507742	   2593.54959647	     22.26709085	    -45.45864218	   2181.21183007	    118.54370001	     -1.09987421	    -11.38513101
      8.26000000	    -38.54612725	     -8.39182142	     15.06333677	   -257.10251461	    851.15627150	      6.14862529	      6.44938701	    -45.00000000	     36.60114357	    -45.00000000	    -39.38086318	   3136.22326065	  -1726.83371441	     33.90740586	     61.71827202	   1099.24544975	     89.56991241	     13.02630202	      1.70962772	     14.34498017	     37.17744706	    -35.62435533	    -45.00000000	    -45.00000000	  -1353.42704010	   2593.50744429	     22.49873599	    -45.26271171	   2181.14834531	    118.80927014	     -1.01438996	    -11.25119377
